#N canvas 544 110 547 357 10;
#X floatatom 272 261 5 0 0 0 - - -;
#X obj 311 239 bng 15 250 50 0 empty empty empty 17 7 0 10 -262144
-1 -1;
#X obj 206 139 bng 15 250 50 0 empty empty empty 17 7 0 10 -262144
-1 -1;
#X msg 403 130 3;
#X msg 364 130 1;
#X msg 216 76 5 30;
#X msg 289 127 43;
#X text 282 107 Upper Limit;
#X msg 155 158 reset;
#X obj 272 206 counter;
#X msg 250 77 3 15;
#X text 168 54 Lower Limit and upper limits;
#X msg 119 189 set 11;
#X text 316 264 Current Value;
#X text 111 19 This example shows how the PDExternal counter works
;
#X text 52 137 Bang to outlet number ->;
#X text 39 187 Set to 11 ->;
#X text 10 157 Reset to lower value ->;
#X text 330 236 Exceeds upper limit;
#X floatatom 442 129 5 0 0 0 - - -;
#X text 363 108 Define Step;
#X connect 2 0 9 0;
#X connect 3 0 9 2;
#X connect 4 0 9 2;
#X connect 5 0 9 1;
#X connect 6 0 9 1;
#X connect 8 0 9 0;
#X connect 9 0 0 0;
#X connect 9 1 1 0;
#X connect 10 0 9 1;
#X connect 12 0 9 0;
#X connect 19 0 9 2;
