#N canvas 709 129 450 300 10;
#X obj 193 172 pan~;
#X obj 142 93 osc~;
#X obj 202 77 phasor~;
#X obj 271 98 hsl 128 15 0 1 0 1 empty empty empty -2 -8 0 10 -262144
-1 -1 3700 1;
#X floatatom 284 123 5 0 0 0 - - -;
#X obj 150 52 mtof;
#X msg 145 21 60;
#X obj 189 226 output~;
#X floatatom 300 189 5 0 0 0 - - -;
#X obj 311 223 / 100;
#X floatatom 332 256 5 0 0 0 - - -;
#X connect 0 0 7 0;
#X connect 0 0 7 1;
#X connect 1 0 0 0;
#X connect 2 0 0 1;
#X connect 3 0 4 0;
#X connect 4 0 0 2;
#X connect 5 0 1 0;
#X connect 5 0 2 0;
#X connect 6 0 5 0;
#X connect 8 0 9 0;
#X connect 9 0 10 0;
