#N canvas 457 491 1089 579 10;
#X obj 342 86 fft~;
#X obj 388 85 fft~;
#X obj 434 88 fft~;
#X obj 475 86 fft~;
#X obj 518 86 fft~;
#X obj 563 86 fft~;
#X obj 820 354 bang~;
#X obj 821 352 timer;
#X floatatom 820 356 9 0 0 0 - - -;
#X obj 823 351 t b b;
#X obj 600 413 bang~;
#X msg 990 15 \; pd dsp 0 \;;
#X floatatom 752 393 5 0 0 0 - - -;
#X obj 753 357 expr ($f1*$f2)/1000;
#X obj 474 249 expr~ (($v1)/(2*3.141259))+0.5;
#X obj 539 341 hist~ 120;
#X obj 538 440 tabwrite~ histel;
#X obj 538 465 table histel 120;
#X obj 446 409 bang~;
#X obj 384 436 tabwrite~ histaz;
#X obj 384 461 table histaz 120;
#X obj 384 345 hist~ 120;
#X obj 384 274 expr~ (($v1)/(2*3.141259))+0.5;
#X obj 876 92 AdaptiveThreshold~;
#X obj 850 153 MFCC~;
#X obj 914 154 bang~;
#X obj 851 180 tabwrite~ mfccs;
#X obj 851 205 table mfccs 51;
#X obj 340 34 noise~;
#X obj 470 31 noise~;
#X obj 514 32 noise~;
#X obj 765 15 block~ 128;
#X obj 562 32 noise~;
#X msg 318 311 info;
#X msg 318 335 bang;
#X text 789 393 second histogram history;
#X text 767 174 Mel-Cepstrum Coefficients;
#X text 401 8 Random input signal;
#X text 899 112 Not in use;
#X text 737 31 128 sample block size;
#X obj 384 165 calcIntensityVectors~ 0.01 0;
#X text 660 249 Angle scaling to 0...1;
#X text 407 483 Azimuth;
#X text 563 486 Elevation;
#X text 537 300 Slow histogram function Creation argument defines the
number of bins;
#X text 267 310 Status;
#X text 267 332 Clear;
#X text 26 101 http://www.tml.tkk.fi/~tervos/;
#X text 26 124 Sakari Tervo and Jukka Pätynen;
#X text 83 143 2009-2010 Gnu licence;
#X text 50 54 PD external examples Real-time audio signal processing
and analysis;
#X text 497 185 Last argument: 0=GRAS order 1=Football order Prints
status when changed;
#X text 292 172 First argument \, Distance of microphones in meters
;
#X connect 0 0 40 0;
#X connect 0 1 40 1;
#X connect 1 0 40 2;
#X connect 1 1 40 3;
#X connect 2 0 40 4;
#X connect 2 1 40 5;
#X connect 3 0 40 6;
#X connect 3 1 40 7;
#X connect 4 0 40 8;
#X connect 4 1 40 9;
#X connect 5 0 23 0;
#X connect 5 0 24 0;
#X connect 5 0 40 10;
#X connect 5 1 23 1;
#X connect 5 1 24 1;
#X connect 5 1 40 11;
#X connect 6 0 9 0;
#X connect 7 0 8 0;
#X connect 8 0 13 1;
#X connect 9 0 7 0;
#X connect 9 1 7 1;
#X connect 10 0 16 0;
#X connect 13 0 12 0;
#X connect 14 0 15 0;
#X connect 15 0 16 0;
#X connect 15 1 13 0;
#X connect 18 0 19 0;
#X connect 21 0 19 0;
#X connect 22 0 21 0;
#X connect 24 0 26 0;
#X connect 25 0 26 0;
#X connect 28 0 0 0;
#X connect 28 0 1 0;
#X connect 29 0 3 0;
#X connect 29 0 1 0;
#X connect 29 0 5 0;
#X connect 30 0 4 0;
#X connect 30 0 3 0;
#X connect 32 0 5 0;
#X connect 32 0 2 0;
#X connect 33 0 21 0;
#X connect 34 0 21 0;
#X connect 40 0 22 0;
#X connect 40 1 14 0;
