#N canvas 514 324 252 229 10;
#X obj 64 88 osc~;
#X obj 66 153 output~;
#X obj 64 66 mtof;
#X obj 176 28 bng 15 250 50 0 empty empty empty 17 7 0 10 -262144 -1
-1;
#X obj 65 108 envelope~ 1000 1000;
#X msg 64 43 55;
#X connect 0 0 4 0;
#X connect 2 0 0 0;
#X connect 3 0 4 1;
#X connect 3 0 5 0;
#X connect 4 0 1 1;
#X connect 4 0 1 0;
#X connect 5 0 2 0;
